<svg viewBox="0 -98 512.00031 512" xmlns="http://www.w3.org/2000/svg"><path d="m401.765625 277.511719 100.234375 28.496093v-48.738281l-125.207031-23.1875zm0 0" fill="#4695e5"/><path d="m355.050781 196.269531 146.949219 9.480469v-51.605469l-167.859375 5.757813zm0 0" fill="#5aa096"/><path d="m376.792969 234.082031 125.207031 23.1875v-51.519531l-146.949219-9.480469zm0 0" fill="#5ad1e5"/><path d="m334.140625 159.902344 167.859375-5.757813v-47.789062l-189.257812 16.332031zm0 0" fill="#fac800"/><path d="m270.777344 49.703125 21.148437 36.78125 210.074219-27.945313v-48.53125zm0 0" fill="#f03c32"/><path d="m312.742188 122.6875 189.257812-16.332031v-47.816407l-210.074219 27.945313zm0 0" fill="#fa9600"/><path d="m256 24.007812-161 280h322zm0 0" fill="#e9eaf2"/><path d="m508.386719 2.414062c-2.179688-1.835937-5.105469-2.789062-8.078125-2.277343l-224.34375 38.519531s-11.28125-19.625-11.292969-19.644531c-3.78125-6.578125-13.566406-6.570313-17.339844 0l-71.785156 124.855469-169.40625 70.921874c-5.09375 2.132813-7.496094 7.992188-5.363281 13.085938 2.003906 4.785156 8.136718 7.4375 13.085937 5.367188l145.261719-60.816407s-72.757812 126.554688-72.792969 126.613281c-3.691406 6.414063 1.003907 14.984376 8.667969 14.984376h322c7.539062 0 12.421875-8.457032 8.667969-14.984376l-2.96875-5.167968s76.457031 21.742187 76.566406 21.773437c2.835937.804688 6.273437.242188 8.761719-1.640625 2.503906-1.890625 3.972656-4.84375 3.972656-7.980468 0 0 0-295.355469 0-296.027344 0-3.03125-1.433594-5.746094-3.613281-7.582032zm-16.386719 114.835938v27.230469l-55.371094 1.902343-96.820312 3.316407-10.578125-18.402344zm-173.769531-5.082031-10.199219-17.742188 183.96875-24.476562v27.222656zm42.816406 74.46875-9.953125-17.308594 86.222656-2.957031 54.683594-1.875v30.59375zm130.953125-164.777344v27.914063l-194.746094 25.90625-10.667968-18.554688zm-379.710938 272.164063 11.5-20.003907h92.210938c5.511719 0 10-4.492187 10-10 0-5.511719-4.488281-10-10-10h-80.710938l120.710938-209.960937 120.714844 209.960937h-80.714844c-5.507812 0-10 4.488281-10 10 0 5.507813 4.492188 10 10 10h92.214844l11.5 20.003907zm379.710938-1.242188-83.59375-23.765625-12.160156-21.152344 95.753906 17.734375zm-108.839844-67.683594-10.144531-17.644531 118.984375 7.679687v30.121094zm0 0"/><path d="m256 254.019531c-5.507812 0-10 4.488281-10 10 0 5.507813 4.492188 10 10 10 5.511719 0 10-4.492187 10-10 0-5.511719-4.488281-10-10-10zm0 0"/></svg>